<svg width="70" height="70" viewBox="0 0 70 70" fill="none" xmlns="http://www.w3.org/2000/svg">
<path d="M59.7916 7.29175H10.2083L14.5833 56.8751L35 62.7084L55.4166 56.8751L59.7916 7.29175Z" fill="#0277BD"/>
<path d="M35 11.6667V58.1876L51.3333 53.5209L54.9792 11.6667H35Z" fill="#039BE5"/>
<path d="M48.2708 18.9583H35V24.7916H42.1458L41.7083 30.6249H35V36.4583H41.4167L40.9792 43.0208L35 45.0624V51.1874L46.5208 47.3958L47.5417 30.6249L48.2708 18.9583Z" fill="white"/>
<path d="M35 18.9583V24.7916H22.0208L21.5833 18.9583H35ZM28.2916 30.6249L28.5833 36.4583H35V30.6249H28.2916ZM28.875 39.3749H23.0416L23.4791 47.3958L35 51.1874V45.0624L29.0208 43.0208L28.875 39.3749Z" fill="#EEEEEE"/>
</svg>
