<svg width="70" height="70" viewBox="0 0 70 70" fill="none" xmlns="http://www.w3.org/2000/svg">
<path d="M61.5416 32.2292L37.7708 8.45841C37.0416 7.72925 36.0208 7.29175 35 7.29175C33.9791 7.29175 32.9583 7.72925 32.2291 8.45841L27.125 13.5626L33.1041 19.5417C33.6875 19.2501 34.2708 19.1042 35 19.1042C37.4791 19.1042 39.375 21.0001 39.375 23.4792C39.375 24.2084 39.2291 24.7917 38.9375 25.3751L44.7708 31.2084C45.3541 30.9167 45.9375 30.7709 46.6666 30.7709C49.1458 30.7709 51.0416 32.6667 51.0416 35.1459C51.0416 37.6251 49.1458 39.5209 46.6666 39.5209C44.1875 39.5209 42.2916 37.6251 42.2916 35.1459C42.2916 34.4167 42.4375 33.8334 42.7291 33.2501L36.8958 27.4167C36.75 27.4167 36.6041 27.5626 36.4583 27.5626V42.7292C38.2083 43.3126 39.375 44.9167 39.375 46.8126C39.375 49.2917 37.4791 51.1876 35 51.1876C32.5208 51.1876 30.625 49.2917 30.625 46.8126C30.625 44.9167 31.7916 43.3126 33.5416 42.7292V27.4167C31.7916 26.8334 30.625 25.2292 30.625 23.3334C30.625 22.6042 30.7708 22.0209 31.0625 21.4376L25.0833 15.4584L8.45829 32.2292C7.72913 32.9584 7.29163 33.9792 7.29163 35.0001C7.29163 36.0209 7.72913 37.0417 8.45829 37.7709L32.2291 61.5417C32.9583 62.2709 33.9791 62.7084 35 62.7084C36.0208 62.7084 37.0416 62.2709 37.7708 61.5417L61.5416 37.7709C62.2708 37.0417 62.7083 36.0209 62.7083 35.0001C62.7083 33.9792 62.2708 32.9584 61.5416 32.2292Z" fill="#F4511E"/>
</svg>
