<svg width="70" height="70" viewBox="0 0 70 70" fill="none" xmlns="http://www.w3.org/2000/svg">
<path d="M10.4883 10.4651L14.3194 53.8797C14.4783 55.6836 15.734 57.2047 17.4752 57.702L32.9963 62.1368C34.3058 62.5115 35.6927 62.5115 37.0023 62.1368L52.5233 57.702C54.2646 57.2047 55.5202 55.6851 55.6792 53.8797L59.5102 10.4651C59.6619 8.75883 58.3188 7.29175 56.6067 7.29175H13.3933C11.6813 7.29175 10.3381 8.75883 10.4883 10.4651Z" fill="url(#paint0_linear_204_157)"/>
<path d="M35 11.6667V58.1876L49.4025 54.0722C50.5648 53.7397 51.4019 52.7247 51.5069 51.5215L54.8406 13.252C54.915 12.3988 54.2442 11.6667 53.3881 11.6667H35Z" fill="#F09601"/>
<path d="M35 36.4583V30.6249H47.5417L46.5208 47.3958L35 51.1874V45.0624L40.9792 43.0208L41.4167 36.4583H35ZM47.9792 24.7916L48.4167 18.9583H35V24.7916H47.9792Z" fill="white"/>
<path d="M35 45.0624V51.1874L23.4792 47.3958L22.8959 39.3749H28.7292L29.0209 43.0208L35 45.0624ZM27.8542 24.7916H35V18.9583H21.7292L22.75 36.4583H35V30.6249H28.2917L27.8542 24.7916Z" fill="#D6E0E9"/>
<path opacity="0.05" d="M48.4167 18.9583L47.9792 24.7917H35H27.8542L28.2917 30.625H35H47.5417L46.5208 47.3958L35 51.1875L23.4792 47.3958L22.8958 39.375H28.7292L29.0208 43.0208L35 45.0625L40.9792 43.0208L41.4167 36.4583H35H22.75L21.7292 18.9583H35H48.4167ZM49.9888 17.5H48.4167H35H21.7292H20.1833L20.2738 19.0429L21.2946 36.5429L21.3748 37.9167H21.3281L21.4419 39.4815L22.0252 47.5023L22.0967 48.4765L23.0242 48.7813L34.545 52.5729L35 52.7231L35.4565 52.5729L46.9773 48.7813L47.9165 48.4721L47.9763 47.4848L48.9971 30.714L49.0919 29.1667H47.5417H35H29.645L29.4263 26.25H35H47.9792H49.3325L49.4331 24.901L49.8706 19.0677L49.9888 17.5ZM30.0752 37.9167H35H39.8577L39.5879 41.9548L35 43.521L30.3975 41.9504L30.1817 39.2583L30.0752 37.9167Z" fill="black"/>
<path opacity="0.07" d="M48.4167 18.9584L47.9792 24.7917H35H27.8542L28.2917 30.6251H35H47.5417L46.5208 47.3959L35 51.1876L23.4792 47.3959L22.8958 39.3751H28.7292L29.0208 43.0209L35 45.0626L40.9792 43.0209L41.4167 36.4584H35H22.75L21.7292 18.9584H35H48.4167ZM49.2027 18.2292H48.4167H35H21.7292H20.9562L21.0014 19.0007L22.0223 36.5007L22.0617 37.1876H22.75H35H40.6379L40.285 42.4872L35 44.2926L29.7092 42.4857L29.4554 39.3167L29.4014 38.6459H28.7292H22.8958H22.1112L22.1681 39.4276L22.7514 47.4484L22.7864 47.9355L23.2502 48.0886L34.771 51.8803L35 51.9547L35.2275 51.8803L46.7483 48.0886L47.2179 47.934L47.2485 47.4397L48.2694 30.6688L48.316 29.8959H47.5417H35H28.9683L28.6402 25.5209H35H47.9792H48.6558L48.7069 24.8457L49.1444 19.0124L49.2027 18.2292Z" fill="black"/>
<defs>
<linearGradient id="paint0_linear_204_157" x1="26.5533" y1="3.51904" x2="49.8152" y2="67.4276" gradientUnits="userSpaceOnUse">
<stop stop-color="#F09701"/>
<stop offset="1" stop-color="#E36001"/>
</linearGradient>
</defs>
</svg>
