<svg width="70" height="70" viewBox="0 0 70 70" fill="none" xmlns="http://www.w3.org/2000/svg">
<path d="M8.75 61.25V8.75H61.25V61.25H8.75Z" fill="#FFD600"/>
<path d="M43.0762 48.0476C44.0854 49.6868 45.1821 51.2574 47.5052 51.2574C49.4564 51.2574 50.4802 50.2876 50.4802 48.946C50.4802 47.3403 49.4214 46.7701 47.2748 45.8353L46.0979 45.3337C42.7014 43.8928 40.4425 42.0874 40.4425 38.2739C40.4425 34.7593 43.1331 32.0847 47.3375 32.0847C50.3314 32.0847 52.4825 33.1216 54.0341 35.837L50.3679 38.1805C49.5614 36.7397 48.6893 36.1724 47.3375 36.1724C45.9579 36.1724 45.0843 37.043 45.0843 38.1805C45.0843 39.5864 45.9593 40.1551 47.9791 41.0258L49.156 41.5274C53.1591 43.2322 55.4166 44.9735 55.4166 48.8876C55.4166 53.1051 52.0858 55.4166 47.6146 55.4166C43.241 55.4166 40.7575 53.2218 39.375 50.5049L43.0762 48.0476ZM26.18 48.1672C26.9179 49.4885 28.0393 50.5049 29.6523 50.5049C31.1952 50.5049 32.0833 49.8953 32.0833 47.5255V32.0833H36.9439V48.2722C36.9439 53.1824 34.0958 55.4166 29.9366 55.4166C26.1785 55.4166 23.466 52.8703 22.3606 50.5049L26.18 48.1672Z" fill="#000001"/>
</svg>
