<svg width="70" height="70" viewBox="0 0 70 70" fill="none" xmlns="http://www.w3.org/2000/svg">
<g clip-path="url(#clip0_204_182)">
<path d="M34.9883 40.2355C38.4387 40.2355 41.2358 37.4384 41.2358 33.988C41.2358 30.5376 38.4387 27.7405 34.9883 27.7405C31.5379 27.7405 28.7408 30.5376 28.7408 33.988C28.7408 37.4384 31.5379 40.2355 34.9883 40.2355Z" fill="#00D8FF"/>
<path d="M34.9877 22.7767C43.061 22.7767 50.7302 23.915 56.5607 25.9222C63.0361 28.1514 66.986 31.4472 66.986 33.9867C66.986 36.6917 62.7202 40.2035 55.7938 42.4984C50.2796 44.3254 42.902 45.3212 34.9877 45.3212C26.6735 45.3212 19.2126 44.3448 13.7624 42.4819C10.3503 41.3156 7.53249 39.8 5.60109 38.1459C3.86554 36.6597 2.98932 35.184 2.98932 33.9867C2.98932 31.4387 6.78807 28.1886 13.1238 25.9797C18.9567 23.9462 26.8137 22.7767 34.9877 22.7767ZM34.9877 19.7874C26.4961 19.7874 18.3101 21.0059 12.1397 23.157C4.73126 25.7399 0 29.7878 0 33.9867C0 38.3234 5.07909 42.673 12.7955 45.3105C18.5957 47.2931 26.3703 48.3105 34.9877 48.3105C43.2004 48.3105 50.8884 47.2729 56.734 45.3361C64.756 42.6781 69.9753 38.3814 69.9753 33.9867C69.9753 29.7726 65.0914 25.6975 57.5338 23.0957C51.3709 20.974 43.3758 19.7874 34.9877 19.7874ZM25.2228 28.4177C29.256 21.4241 34.0734 15.3491 38.7249 11.301C43.891 6.80522 48.7193 5.03004 50.9192 6.29864C53.2625 7.64995 54.1736 13.0998 52.7014 20.2462C51.5293 25.9358 48.7062 32.8243 44.7525 39.6803C40.599 46.8826 36.026 52.8579 31.6893 56.6487C28.9744 59.0219 26.2537 60.7056 23.856 61.5524C21.7015 62.3134 19.9854 62.3352 18.9482 61.737C16.7409 60.4641 15.8233 55.5498 17.0749 48.9578C18.2272 42.8892 21.1392 35.4989 25.2228 28.4177ZM22.6333 26.9243C18.391 34.2806 15.357 41.9805 14.1381 48.4002C12.6745 56.1082 13.8174 62.2289 17.4548 64.3266C21.2117 66.4931 27.517 64.2663 33.6566 58.8993C38.2718 54.8652 43.0371 48.6387 47.3421 41.1736C51.4449 34.0592 54.3867 26.8809 55.6292 20.8494C57.3344 12.5725 56.2195 5.90442 52.4125 3.70905C48.762 1.6039 42.792 3.79883 36.7625 9.04601C31.8457 13.3249 26.8237 19.658 22.6333 26.9243ZM25.2322 39.6965C21.1874 32.7096 18.33 25.5021 17.146 19.4505C15.8309 12.7296 16.7044 7.65985 18.9021 6.38757C21.2432 5.03226 26.4198 6.96461 31.8758 11.8092C36.2197 15.6661 40.7778 21.552 44.743 28.4014C48.9086 35.5968 51.8016 42.5429 52.92 48.1932C53.6202 51.7305 53.7203 54.9285 53.2565 57.4287C52.8397 59.6753 52.0016 61.1729 50.9653 61.7728C48.7601 63.0494 44.0442 61.3902 38.9583 57.0136C34.2762 52.9846 29.3277 46.7709 25.2322 39.6965ZM22.6451 41.1943C26.8997 48.5434 32.0555 55.0174 37.0084 59.2795C42.9554 64.397 48.8291 66.4636 52.463 64.3599C56.2163 62.1871 57.436 55.6123 55.8525 47.6128C54.6622 41.5996 51.6476 34.3615 47.3301 26.9037C43.2153 19.796 38.4655 13.6625 33.8606 9.57385C27.5415 3.96297 21.2077 1.59865 17.4044 3.80049C13.7574 5.91174 12.6774 12.1803 14.2123 20.0245C15.4638 26.4211 18.4426 33.9349 22.6451 41.1943Z" fill="#00D8FF"/>
</g>
<defs>
<clipPath id="clip0_204_182">
<rect width="70" height="70" fill="white"/>
</clipPath>
</defs>
</svg>
